<svg preserveAspectRatio="xMidYMid meet" data-bbox="0 0 335.5 335.5" viewBox="0 0 335.5 335.5" xmlns="http://www.w3.org/2000/svg" data-type="color" role="presentation" aria-hidden="true" aria-label="">
    <g>
        <path fill="#ffffff" d="M121.7 49.7h-2v56.5l2 3.3-34.3-56.1-2.2-3.5v-.2h-11v88.2h13.2V82.3l34.3 55.6h11.1V49.7h-11.1z" data-color="1"></path>
        <path d="M251.4 200.3v7h-14.6v67.5h14.6v7h-36.1v-7h14.5v-67.6h-14.5v-7l36.1.1m4-4h-44.1v15h14.5v59.5h-14.5v15h44.1v-15h-14.6v-59.5h14.6v-15z" fill="#ffffff" data-color="1"></path>
        <path d="M233.3 55.7c11.2 0 23.3 8.3 25 26.9v53.3h-6.8v-28.3h-36.6v28.3h-6.8V82.6c.7-8.4 3.7-15.4 8.8-20.2 4.4-4.3 10.3-6.7 16.4-6.7m-18.4 45h36.7V82.2C250.8 69 241.5 63 233.3 63s-17.4 6-18.3 19.2l-.1 18.5m18.5-48.9c-13.8 0-27.6 10.4-29.2 30.7V140H219v-28.3h28.7V140h14.8V82.4c-1.9-20.6-15.5-30.7-29.1-30.6zm-14.4 45V82.4c.7-10.3 7.5-15.4 14.3-15.4s13.7 5.2 14.3 15.4v14.3H219z" fill="#ffffff" data-color="1"></path>
        <path fill="#ffffff" d="M124.3 196.3l-19.9 51-.9 1.9-.8-1.9-19.9-51H67.1l34.9 89.5h3.1l34.8-89.5h-15.6z" data-color="1"></path>
        <path fill="#ffffff" d="M176.9 158.7v15.8h-16.3v-15.8h16.3z" data-color="1"></path>
        <path d="M325.5 10v315.5H10V10h315.5m10-10H0v335.5h335.5V0z" fill="#ffffff" data-color="1"></path>
    </g>
</svg>